<svg width="14" height="14" viewBox="0 0 14 14" fill="none" xmlns="http://www.w3.org/2000/svg">
<path d="M13.8651 6.79571C13.875 6.81976 13.8821 6.8438 13.8934 6.86643C14.0362 7.18749 13.8241 7.53825 13.4747 7.55946C13.4394 7.56088 13.4026 7.56087 13.3673 7.55946C11.472 7.55946 9.57963 7.55946 7.68582 7.55805C7.64622 7.55805 7.60945 7.5439 7.56419 7.53542C7.56278 7.60472 7.56136 7.64291 7.55995 7.68109C7.55995 9.58763 7.55995 11.4942 7.55853 13.4021C7.55853 13.6652 7.43124 13.8519 7.20919 13.9155C6.91642 14.0018 6.62365 13.808 6.58688 13.5082C6.58122 13.4601 6.58263 13.4106 6.58263 13.3625C6.58263 11.4758 6.58122 9.58763 6.58263 7.69948C6.58263 7.65705 6.58829 7.61462 6.59395 7.56087C6.54162 7.55946 6.50343 7.55805 6.46666 7.55805C4.55588 7.55946 2.64651 7.55946 0.735726 7.56088C0.515088 7.56088 0.343952 7.47743 0.246362 7.27235C0.169988 7.10828 0.203932 6.94988 0.276064 6.79571L0.41467 6.65711C0.549033 6.5878 0.691882 6.58073 0.840388 6.58215C2.7144 6.58356 4.58982 6.58356 6.46383 6.58498C6.5006 6.58498 6.5402 6.60478 6.57698 6.61609C6.58405 6.60053 6.58971 6.58639 6.59819 6.57225C6.59253 6.52982 6.58405 6.48739 6.58546 6.44637C6.58405 4.57802 6.58546 2.70967 6.58405 0.841315C6.58405 0.694223 6.58971 0.54996 6.65901 0.415597L6.79762 0.276991C6.98289 0.179402 7.16676 0.18223 7.34921 0.276991L7.48782 0.415597C7.55853 0.551374 7.56278 0.699881 7.56278 0.849802C7.56136 2.72098 7.56136 4.59358 7.56136 6.46334C7.56136 6.50012 7.56278 6.5383 7.56419 6.59063C7.61228 6.5878 7.65188 6.58215 7.69007 6.58073C9.55418 6.58073 11.4197 6.58215 13.2838 6.57932C13.4366 6.57932 13.5879 6.58356 13.7279 6.65569L13.8665 6.7943L13.8651 6.79571Z" fill="white"/>
</svg>
