<svg width="20" height="20" viewBox="0 0 20 20" fill="none" xmlns="http://www.w3.org/2000/svg">
<path fill-rule="evenodd" clip-rule="evenodd" d="M1.36392 8.95662C1.36392 5.013 4.56085 1.81607 8.50447 1.81607C12.4481 1.81607 15.645 5.013 15.645 8.95662C15.645 12.9002 12.4481 16.0972 8.50447 16.0972C4.56085 16.0972 1.36392 12.9002 1.36392 8.95662ZM8.50447 0.452148C3.80758 0.452148 0 4.25973 0 8.95662C0 13.6535 3.80758 17.4611 8.50447 17.4611C10.6074 17.4611 12.5321 16.6978 14.0166 15.4332L17.9308 19.3473C18.1971 19.6137 18.6289 19.6137 18.8952 19.3473C19.1615 19.081 19.1615 18.6492 18.8952 18.3829L14.981 14.4687C16.2457 12.9842 17.0089 11.0596 17.0089 8.95662C17.0089 4.25973 13.2014 0.452148 8.50447 0.452148Z" fill="#817EFF"/>
</svg>
