<svg width="20" height="20" viewBox="0 0 20 20" fill="none" xmlns="http://www.w3.org/2000/svg">
<g clip-path="url(#clip0_138_10061)">
<path d="M2.31429 8.97959C0.955102 8.97959 0.00816326 8.02857 0 6.66939C0 6.16735 0 5.66531 0 5.16327V3.77551C0 3.28571 0 2.79184 0 2.29796C0.00816326 0.95102 0.955102 0.00816326 2.30204 0C3.06122 0 3.82041 0 4.57959 0C5.27755 0 5.97959 0 6.67755 0C8.03265 0 8.97959 0.955102 8.97959 2.31837C8.97959 3.76735 8.97959 5.22041 8.97959 6.66939C8.97959 8.02857 8.02449 8.97551 6.66531 8.97959H4.42449H2.31429ZM2.30204 1.62857C1.86939 1.62857 1.62857 1.86939 1.62857 2.30204C1.62857 3.75918 1.62857 5.21633 1.62857 6.67755C1.62857 7.11429 1.86122 7.34286 2.30204 7.34286H6.67347C7.11429 7.34286 7.33878 7.11837 7.33878 6.67755C7.33878 6.15102 7.33878 5.62449 7.33878 5.09388V3.90204C7.33878 3.36735 7.33878 2.83673 7.33878 2.30204C7.33878 1.86122 7.10612 1.62857 6.67347 1.62857H4.48571H2.29796H2.30204Z" fill="white"/>
<path d="M2.2898 19.996C0.946939 19.996 0.00816326 19.0532 0 17.7144C0 17.2001 0 16.6899 0 16.1756C0 16.1797 0 13.8409 0 13.343C0 11.9756 0.959184 11.0205 2.32245 11.0205H6.64898C8.02041 11.0205 8.97551 11.9756 8.97959 13.3389C8.97959 14.7879 8.97959 16.2409 8.97959 17.6899C8.97959 19.045 8.03673 19.9919 6.6898 19.996C5.97959 19.996 5.26939 19.996 4.55918 19.996C3.80408 19.996 3.0449 19.996 2.2898 19.996ZM2.29796 12.6572C1.85714 12.6572 1.62857 12.8899 1.62449 13.3266C1.62449 14.7838 1.62449 16.2409 1.62449 17.7021C1.62449 18.1348 1.86531 18.3715 2.29796 18.3756H4.48571H6.67347C7.1102 18.3756 7.33878 18.143 7.33878 17.7021C7.33878 16.245 7.33878 14.7879 7.33878 13.3307C7.33878 12.8899 7.11429 12.6654 6.66939 12.6654H3.21633H2.30204L2.29796 12.6572Z" fill="white"/>
<path d="M13.3299 8.97977C11.9911 8.97977 11.0197 8.00426 11.0156 6.66548C11.0156 5.20834 11.0156 3.7512 11.0156 2.28997C11.0156 0.967523 11.9789 0.00425701 13.2973 0.000175382C14.0279 0.000175382 14.7585 -0.00390625 15.4891 -0.00390625C16.2197 -0.00390625 16.9748 -0.00390625 17.7177 0.000175382C19.0279 0.00425701 19.983 0.959359 19.9911 2.27364C19.9911 2.77569 19.9911 3.28181 19.9911 3.78385V5.16752C19.9911 5.66956 19.9911 6.1716 19.9911 6.66956C19.9871 8.02875 19.036 8.97569 17.6769 8.97569H15.436H13.3258L13.3299 8.97977ZM13.3258 1.62875C12.8891 1.62875 12.6564 1.8614 12.6564 2.29813C12.6564 3.75528 12.6564 5.21242 12.6564 6.66956C12.6564 7.11446 12.8809 7.33895 13.3177 7.33895H17.6932C18.2524 7.33895 18.3707 6.97569 18.3707 6.67773C18.3707 5.22058 18.3707 3.76344 18.3707 2.30222C18.3707 1.86548 18.134 1.62875 17.7013 1.62467H15.4687H13.3299L13.3258 1.62875Z" fill="white"/>
<path d="M13.3338 19.9957C11.9706 19.9957 11.0195 19.0365 11.0195 17.6651C11.0195 16.2243 11.0195 14.7794 11.0195 13.3386C11.0195 11.9753 11.9787 11.0202 13.3501 11.0161H17.6767C19.0399 11.0161 19.995 11.9712 19.9991 13.3386C19.9991 13.8365 19.9991 14.3345 19.9991 14.8324V16.1998C19.9991 16.6937 19.9991 17.1916 19.9991 17.6855C19.995 19.0406 19.044 19.9875 17.6848 19.9916C16.9338 19.9916 16.1869 19.9916 15.4359 19.9916C14.7338 19.9916 14.0359 19.9916 13.3338 19.9916V19.9957ZM13.3216 12.6569C12.8808 12.6569 12.6563 12.8814 12.6563 13.3263C12.6563 13.8528 12.6563 14.3794 12.6563 14.91V16.1018C12.6563 16.6365 12.6563 17.1671 12.6563 17.7018C12.6563 18.1386 12.8889 18.3712 13.3257 18.3753H15.4644H17.6971C18.1297 18.3753 18.3665 18.1345 18.3706 17.7018C18.3706 16.2447 18.3706 14.7875 18.3706 13.3263C18.3706 12.8937 18.1379 12.661 17.6971 12.661H15.5093H13.3216V12.6569Z" fill="white"/>
</g>
<defs>
<clipPath id="clip0_138_10061">
<rect width="19.9959" height="20" fill="white"/>
</clipPath>
</defs>
</svg>
