<svg width="22" height="20" viewBox="0 0 22 20" fill="none" xmlns="http://www.w3.org/2000/svg">
<g clip-path="url(#clip0_138_10068)">
<path d="M20.5954 1.80424H0.90212C0.405954 1.80424 0 1.39829 0 0.90212C0 0.405954 0.405954 0 0.90212 0H20.5954C21.0916 0 21.4975 0.405954 21.4975 0.90212C21.4975 1.39829 21.0916 1.80424 20.5954 1.80424Z" fill="#817EFF"/>
<path d="M20.5954 20H0.90212C0.405954 20 0 19.5941 0 19.0979C0 18.6018 0.405954 18.1958 0.90212 18.1958H20.5954C21.0916 18.1958 21.4975 18.6018 21.4975 19.0979C21.4975 19.5941 21.0916 20 20.5954 20Z" fill="#817EFF"/>
<path d="M20.5954 10.9019H0.90212C0.405954 10.9019 0 10.4959 0 9.99978C0 9.50361 0.405954 9.09766 0.90212 9.09766H20.5954C21.0916 9.09766 21.4975 9.50361 21.4975 9.99978C21.4975 10.4959 21.0916 10.9019 20.5954 10.9019Z" fill="#817EFF"/>
</g>
<defs>
<clipPath id="clip0_138_10068">
<rect width="21.4975" height="20" fill="white"/>
</clipPath>
</defs>
</svg>
